<?xml version="1.0" encoding="UTF-8" standalone="no"?>
<svg
   xmlns:dc="http://purl.org/dc/elements/1.1/"
   xmlns:cc="http://creativecommons.org/ns#"
   xmlns:rdf="http://www.w3.org/1999/02/22-rdf-syntax-ns#"
   xmlns:svg="http://www.w3.org/2000/svg"
   xmlns="http://www.w3.org/2000/svg"
   xmlns:sodipodi="http://sodipodi.sourceforge.net/DTD/sodipodi-0.dtd"
   xmlns:inkscape="http://www.inkscape.org/namespaces/inkscape"
   contentScriptType="text/ecmascript"
   contentStyleType="text/css"
   height="100%"
   id="Layer_1"
   preserveAspectRatio="xMidYMid meet"
   version="1.1"
   viewBox="0 0 64 64"
   width="100%"
   xml:space="preserve"
   zoomAndPan="magnify"
   sodipodi:docname="resource.svg"
   inkscape:version="0.92.4 (unknown)"><metadata
     id="metadata9"><rdf:RDF><cc:Work
         rdf:about=""><dc:format>image/svg+xml</dc:format><dc:type
           rdf:resource="http://purl.org/dc/dcmitype/StillImage" /></cc:Work></rdf:RDF></metadata><defs
     id="defs7" /><sodipodi:namedview
     pagecolor="#ffffff"
     bordercolor="#666666"
     borderopacity="1"
     objecttolerance="10"
     gridtolerance="10"
     guidetolerance="10"
     inkscape:pageopacity="0"
     inkscape:pageshadow="2"
     inkscape:window-width="1920"
     inkscape:window-height="1010"
     id="namedview5"
     showgrid="false"
     inkscape:zoom="10.429825"
     inkscape:cx="12.490618"
     inkscape:cy="30.694304"
     inkscape:window-x="0"
     inkscape:window-y="0"
     inkscape:window-maximized="1"
     inkscape:current-layer="Layer_1" /><path
     d="m 30.076923,38.818182 v 13.636363 c 0,1.231073 -0.380619,2.296414 -1.141827,3.196023 C 28.173888,56.550178 27.272446,57 26.230769,57 H 10.846154 C 9.8044772,57 8.9030348,56.550178 8.1418269,55.650568 7.380619,54.750959 7,53.685618 7,52.454545 V 38.818182 C 7,37.587109 7.380619,36.521768 8.1418269,35.622159 8.9030348,34.72255 9.8044772,34.272727 10.846154,34.272727 h 15.384615 c 1.041677,0 1.943119,0.449823 2.704327,1.349432 0.761208,0.899609 1.141827,1.96495 1.141827,3.196023 z m 0,-27.272727 v 13.636363 c 0,1.231073 -0.380619,2.296414 -1.141827,3.196023 -0.761208,0.899609 -1.66265,1.349432 -2.704327,1.349432 H 10.846154 c -1.0416768,0 -1.9431192,-0.449823 -2.7043271,-1.349432 C 7.380619,27.478232 7,26.412891 7,25.181818 V 11.545455 C 7,10.314382 7.380619,9.249041 8.1418269,8.349432 8.9030348,7.449822 9.8044772,7 10.846154,7 h 15.384615 c 1.041677,0 1.943119,0.449822 2.704327,1.349432 0.761208,0.899609 1.141827,1.96495 1.141827,3.196023 z M 57,38.818182 v 13.636363 c 0,1.231073 -0.380619,2.296414 -1.141827,3.196023 C 55.096965,56.550178 54.195523,57 53.153846,57 H 37.769231 c -1.041677,0 -1.943119,-0.449822 -2.704327,-1.349432 -0.761208,-0.899609 -1.141827,-1.96495 -1.141827,-3.196023 V 38.818182 c 0,-1.231073 0.380619,-2.296414 1.141827,-3.196023 0.761208,-0.899609 1.66265,-1.349432 2.704327,-1.349432 h 15.384615 c 1.041677,0 1.943119,0.449823 2.704327,1.349432 C 56.619381,36.521768 57,37.587109 57,38.818182 Z m 0,-27.272727 v 13.636363 c 0,1.231073 -0.380619,2.296414 -1.141827,3.196023 -0.761208,0.899609 -1.66265,1.349432 -2.704327,1.349432 H 37.769231 c -1.041677,0 -1.943119,-0.449823 -2.704327,-1.349432 -0.761208,-0.899609 -1.141827,-1.96495 -1.141827,-3.196023 V 11.545455 c 0,-1.231073 0.380619,-2.296414 1.141827,-3.196023 C 35.826112,7.449822 36.727554,7 37.769231,7 h 15.384615 c 1.041677,0 1.943119,0.449822 2.704327,1.349432 C 56.619381,9.249041 57,10.314382 57,11.545455 Z"
     id="path2"
     inkscape:connector-curvature="0"
     style="stroke-width:0.0326657" /></svg>