<?xml version="1.0" encoding="UTF-8" standalone="no"?>
<svg
   xmlns:dc="http://purl.org/dc/elements/1.1/"
   xmlns:cc="http://creativecommons.org/ns#"
   xmlns:rdf="http://www.w3.org/1999/02/22-rdf-syntax-ns#"
   xmlns:svg="http://www.w3.org/2000/svg"
   xmlns="http://www.w3.org/2000/svg"
   xmlns:sodipodi="http://sodipodi.sourceforge.net/DTD/sodipodi-0.dtd"
   xmlns:inkscape="http://www.inkscape.org/namespaces/inkscape"
   contentScriptType="text/ecmascript"
   contentStyleType="text/css"
   height="64"
   id="Layer_1"
   preserveAspectRatio="xMidYMid meet"
   version="1.1"
   width="64"
   xml:space="preserve"
   zoomAndPan="magnify"
   sodipodi:docname="setup.svg"
   inkscape:version="0.92.4 (unknown)"><metadata
     id="metadata9"><rdf:RDF><cc:Work
         rdf:about=""><dc:format>image/svg+xml</dc:format><dc:type
           rdf:resource="http://purl.org/dc/dcmitype/StillImage" /></cc:Work></rdf:RDF></metadata><defs
     id="defs7" /><sodipodi:namedview
     pagecolor="#ffffff"
     bordercolor="#666666"
     borderopacity="1"
     objecttolerance="10"
     gridtolerance="10"
     guidetolerance="10"
     inkscape:pageopacity="0"
     inkscape:pageshadow="2"
     inkscape:window-width="1920"
     inkscape:window-height="1010"
     id="namedview5"
     showgrid="false"
     inkscape:zoom="5.2149125"
     inkscape:cx="-8.3899283"
     inkscape:cy="9.7708611"
     inkscape:window-x="0"
     inkscape:window-y="0"
     inkscape:window-maximized="1"
     inkscape:current-layer="Layer_1" /><path
     d="M 42,32 C 42,29.23957 41.023437,26.882812 39.070312,24.929687 37.117187,22.976562 34.76043,22 32,22 29.23957,22 26.882812,22.976562 24.929687,24.929687 22.976562,26.882812 22,29.23957 22,32 c 0,2.76043 0.976562,5.117187 2.929687,7.070312 C 26.882812,41.023437 29.23957,42 32,42 34.76043,42 37.117187,41.023437 39.070312,39.070312 41.023437,37.117187 42,34.76043 42,32 Z m 20,-4.257813 v 8.671875 c 0,0.3125 -0.10418,0.611993 -0.3125,0.898438 -0.20832,0.286445 -0.46875,0.455742 -0.78125,0.507812 l -7.226563,1.09375 c -0.494804,1.40625 -1.002617,2.591133 -1.523437,3.554688 0.911445,1.30207 2.304687,3.098945 4.179687,5.390625 0.26043,0.3125 0.390625,0.638008 0.390625,0.976562 0,0.338555 -0.117187,0.638008 -0.351562,0.898438 -0.703125,0.963555 -1.992188,2.369805 -3.867188,4.21875 -1.875,1.848945 -3.098945,2.773437 -3.671875,2.773437 -0.3125,0 -0.651054,-0.117187 -1.015625,-0.351562 L 42.429687,52.15625 C 41.283867,52.755195 40.098945,53.25 38.875,53.640625 38.45832,57.182305 38.080742,59.60418 37.742187,60.90625 37.559883,61.63543 37.091133,62 36.335937,62 h -8.671875 c -0.36457,0 -0.683593,-0.110664 -0.957031,-0.332031 -0.273437,-0.221367 -0.423164,-0.501289 -0.449219,-0.839844 l -1.09375,-7.1875 c -1.276054,-0.41668 -2.447929,-0.898438 -3.515625,-1.445313 L 16.140625,56.375 c -0.26043,0.234375 -0.585937,0.351562 -0.976562,0.351562 -0.364571,0 -0.690118,-0.143242 -0.976563,-0.429687 -3.28125,-2.96875 -5.4296875,-5.15625 -6.4453125,-6.5625 C 7.5598828,49.473945 7.46875,49.174492 7.46875,48.835937 c 0,-0.3125 0.1041797,-0.611992 0.3125,-0.898437 C 8.171875,47.390625 8.8359375,46.524727 9.7734375,45.339844 10.710938,44.154961 11.414063,43.236992 11.882813,42.585937 11.179688,41.283867 10.64582,39.994805 10.28125,38.71875 L 3.1328125,37.664062 C 2.7942578,37.611992 2.5208203,37.449219 2.3125,37.175781 2.1041797,36.902344 2,36.596367 2,36.257812 v -8.671875 c 0,-0.3125 0.1041797,-0.611992 0.3125,-0.898437 0.2083203,-0.286445 0.4557422,-0.455742 0.7421875,-0.507813 l 7.2656255,-1.09375 c 0.36457,-1.197929 0.872382,-2.39582 1.523437,-3.59375 -1.04168,-1.484375 -2.4348828,-3.28125 -4.1796875,-5.390625 -0.2604297,-0.312499 -0.390625,-0.624999 -0.390625,-0.937499 0,-0.26043 0.1171875,-0.559883 0.3515625,-0.898438 0.6770703,-0.9375 1.9596484,-2.337227 3.847656,-4.199219 1.888008,-1.8619919 3.118477,-2.7929685 3.691407,-2.7929685 0.338554,0 0.67707,0.1301953 1.015624,0.390625 L 21.570312,11.84375 C 22.716133,11.244805 23.901055,10.75 25.125,10.359375 25.54168,6.8176953 25.919258,4.3958203 26.257812,3.09375 26.440117,2.3645703 26.908867,2 27.664062,2 h 8.671875 c 0.364571,0 0.683594,0.1106641 0.957032,0.3320313 0.273437,0.2213671 0.423164,0.501289 0.449218,0.8398437 l 1.09375,7.1875 c 1.276055,0.41668 2.44793,0.898438 3.515625,1.445313 L 47.898437,7.625 c 0.234375,-0.234375 0.546875,-0.3515625 0.9375,-0.3515625 0.338555,0 0.664063,0.1301953 0.976563,0.390625 3.359375,3.0989455 5.507812,5.3125005 6.445312,6.6406255 0.182305,0.20832 0.273438,0.494804 0.273438,0.859375 0,0.3125 -0.10418,0.611992 -0.3125,0.898437 -0.390625,0.546875 -1.054688,1.412773 -1.992188,2.597656 -0.9375,1.184883 -1.640625,2.102852 -2.109375,2.753906 0.677071,1.302071 1.210938,2.578125 1.601563,3.828125 l 7.148437,1.09375 c 0.338555,0.05207 0.611993,0.214844 0.820313,0.488282 C 61.89582,27.097656 62,27.403633 62,27.742187 Z"
     id="path2"
     inkscape:connector-curvature="0"
     style="stroke-width:0.0390625" /></svg>