<?xml version="1.0" encoding="UTF-8"?>
<!DOCTYPE svg PUBLIC "-//W3C//DTD SVG 1.1//EN" "http://www.w3.org/Graphics/SVG/1.1/DTD/svg11.dtd">
<!-- Creator: CorelDRAW X6 -->
<svg xmlns="http://www.w3.org/2000/svg" xml:space="preserve" width="100%" height="100%" version="1.1" style="shape-rendering:geometricPrecision; text-rendering:geometricPrecision; image-rendering:optimizeQuality; fill-rule:evenodd; clip-rule:evenodd"
viewBox="0 0 500 500"
 xmlns:xlink="http://www.w3.org/1999/xlink">
 <defs>
  <style type="text/css">
   <![CDATA[
    .str0 {stroke:#DB9200;stroke-width:2.5}
    .fil10 {fill:none}
    .fil0 {fill:url(#id0)}
    .fil6 {fill:url(#id1)}
    .fil2 {fill:url(#id2)}
    .fil1 {fill:url(#id3)}
    .fil9 {fill:url(#id4)}
    .fil8 {fill:url(#id5)}
    .fil4 {fill:url(#id6)}
    .fil7 {fill:url(#id7)}
    .fil3 {fill:url(#id8)}
    .fil5 {fill:url(#id9)}
   ]]>
  </style>
  <linearGradient id="id0" gradientUnits="userSpaceOnUse" x1="382.713" y1="430.529" x2="259.435" y2="311.305">
   <stop offset="0" style="stop-color:#FFB217"/>
   <stop offset="1" style="stop-color:#ED9E00"/>
  </linearGradient>
  <linearGradient id="id1" gradientUnits="userSpaceOnUse" x1="149.014" y1="311.066" x2="208.838" y2="430.769">
   <stop offset="0" style="stop-color:#ED9E00"/>
   <stop offset="1" style="stop-color:#FFC146"/>
  </linearGradient>
  <linearGradient id="id2" gradientUnits="userSpaceOnUse" x1="294.01" y1="256.468" x2="436.294" y2="250.051">
   <stop offset="0" style="stop-color:#FFAA00"/>
   <stop offset="1" style="stop-color:#ED9E00"/>
  </linearGradient>
  <linearGradient id="id3" gradientUnits="userSpaceOnUse" x1="235.656" y1="337.079" x2="406.492" y2="404.755">
   <stop offset="0" style="stop-color:#FFB92E"/>
   <stop offset="1" style="stop-color:#ED9E00"/>
  </linearGradient>
  <linearGradient id="id4" gradientUnits="userSpaceOnUse" x1="67.549" y1="224.283" x2="202.451" y2="230.298">
   <stop offset="0" style="stop-color:#FFC95D"/>
   <stop offset="1" style="stop-color:#FFE8B9"/>
  </linearGradient>
  <linearGradient id="id5" gradientUnits="userSpaceOnUse" xlink:href="#id4" x1="272.217" y1="205.383" x2="161.085" y2="99.168">
  </linearGradient>
  <linearGradient id="id6" gradientUnits="userSpaceOnUse" x1="426.756" y1="209.304" x2="303.244" y2="245.277">
   <stop offset="0" style="stop-color:#FFAA00"/>
   <stop offset="1" style="stop-color:#FFC146"/>
  </linearGradient>
  <linearGradient id="id7" gradientUnits="userSpaceOnUse" x1="176.648" y1="258.036" x2="93.048" y2="248.483">
   <stop offset="0" style="stop-color:#FFC146"/>
   <stop offset="1" style="stop-color:#FFB217"/>
  </linearGradient>
  <linearGradient id="id8" gradientUnits="userSpaceOnUse" x1="318.87" y1="127.939" x2="247.828" y2="176.612">
   <stop offset="0" style="stop-color:#C88600"/>
   <stop offset="1" style="stop-color:#FFB217"/>
  </linearGradient>
  <linearGradient id="id9" gradientUnits="userSpaceOnUse" x1="198.142" y1="353.3" x2="159.71" y2="388.534">
   <stop offset="0" style="stop-color:#DB9200"/>
   <stop offset="1" style="stop-color:#FFAA00"/>
  </linearGradient>
 </defs>
 <g id="Layer_x0020_1">
  <metadata id="CorelCorpID_0Corel-Layer"/>
  <polygon class="fil0" points="392,469 250,273 250,387 "/>
  <polygon class="fil1" points="358,308 250,273 392,469 "/>
  <polygon class="fil2" points="358,308 250,273 480,198 "/>
  <polygon class="fil3" points="317,181 250,31 250,273 "/>
  <polygon class="fil4" points="480,198 317,181 250,273 "/>
  <polygon class="fil5" points="108,469 250,273 250,387 "/>
  <polygon class="fil6" points="142,308 250,273 108,469 "/>
  <polygon class="fil7" points="142,308 250,273 20,198 "/>
  <polygon class="fil8" points="183,181 250,31 250,273 "/>
  <polygon class="fil9" points="20,198 183,181 250,273 "/>
  <polygon class="fil10 str0" points="250,31 317,181 480,198 358,308 392,469 250,387 108,469 142,308 20,198 183,181 "/>
 </g>
</svg>
