<?xml version="1.0" encoding="UTF-8" standalone="no"?>
<svg
   xmlns:dc="http://purl.org/dc/elements/1.1/"
   xmlns:cc="http://creativecommons.org/ns#"
   xmlns:rdf="http://www.w3.org/1999/02/22-rdf-syntax-ns#"
   xmlns:svg="http://www.w3.org/2000/svg"
   xmlns="http://www.w3.org/2000/svg"
   xmlns:sodipodi="http://sodipodi.sourceforge.net/DTD/sodipodi-0.dtd"
   xmlns:inkscape="http://www.inkscape.org/namespaces/inkscape"
   contentScriptType="text/ecmascript"
   contentStyleType="text/css"
   height="100%"
   id="Layer_1"
   preserveAspectRatio="xMidYMid meet"
   version="1.1"
   viewBox="0 0 64 64"
   width="100%"
   xml:space="preserve"
   zoomAndPan="magnify"
   sodipodi:docname="update_black.svg"
   inkscape:version="0.92.4 (unknown)"><metadata
     id="metadata9"><rdf:RDF><cc:Work
         rdf:about=""><dc:format>image/svg+xml</dc:format><dc:type
           rdf:resource="http://purl.org/dc/dcmitype/StillImage" /><dc:title></dc:title></cc:Work></rdf:RDF></metadata><defs
     id="defs7" /><sodipodi:namedview
     pagecolor="#ffffff"
     bordercolor="#666666"
     borderopacity="1"
     objecttolerance="10"
     gridtolerance="10"
     guidetolerance="10"
     inkscape:pageopacity="0"
     inkscape:pageshadow="2"
     inkscape:window-width="1920"
     inkscape:window-height="1010"
     id="namedview5"
     showgrid="false"
     inkscape:zoom="3.6875"
     inkscape:cx="-48.903877"
     inkscape:cy="47.59908"
     inkscape:window-x="0"
     inkscape:window-y="0"
     inkscape:window-maximized="1"
     inkscape:current-layer="Layer_1" /><path
     d="m 61.023437,38.25 c 0,0.130195 -0.01301,0.221367 -0.03906,0.273437 -1.66668,6.97918 -5.15625,12.636719 -10.46875,16.972657 C 45.203125,59.832031 38.97918,62 31.84375,62 28.04168,62 24.363281,61.283867 20.808594,59.851562 17.253906,58.419258 14.08332,56.375 11.296875,53.71875 L 6.2578125,58.757812 C 5.7630078,59.252617 5.1770703,59.5 4.5,59.5 3.8229297,59.5 3.2369922,59.252617 2.7421875,58.757812 2.2473828,58.263008 2,57.67707 2,57 V 39.5 C 2,38.82293 2.2473828,38.236992 2.7421875,37.742187 3.2369922,37.247383 3.8229297,37 4.5,37 H 22 c 0.67707,0 1.263008,0.247383 1.757812,0.742187 C 24.252617,38.236992 24.5,38.82293 24.5,39.5 c 0,0.67707 -0.247383,1.263008 -0.742188,1.757812 l -5.351562,5.351563 c 1.848945,1.71875 3.945312,3.046875 6.289062,3.984375 C 27.039062,51.53125 29.473945,52 32,52 c 3.48957,0 6.744805,-0.846367 9.765625,-2.539063 3.02082,-1.692695 5.442695,-4.023437 7.265625,-6.992187 0.286445,-0.442695 0.976562,-1.966133 2.070312,-4.570313 C 51.309883,37.299492 51.700508,37 52.273437,37 h 7.5 c 0.338555,0 0.631524,0.123711 0.878907,0.371094 0.247383,0.247383 0.371093,0.540351 0.371093,0.878906 z M 62,7 v 17.5 c 0,0.67707 -0.247383,1.263008 -0.742188,1.757812 C 60.763008,26.752617 60.17707,27 59.5,27 H 42 C 41.32293,27 40.736992,26.752617 40.242187,26.257812 39.747383,25.763008 39.5,25.17707 39.5,24.5 c 0,-0.67707 0.247383,-1.263008 0.742187,-1.757813 l 5.390625,-5.390625 C 41.778633,13.783867 37.234375,12 32,12 c -3.48957,0 -6.744805,0.846367 -9.765625,2.539063 -3.02082,1.692695 -5.442695,4.023437 -7.265625,6.992187 -0.286445,0.442695 -0.976562,1.966133 -2.070312,4.570312 C 12.690117,26.700508 12.299492,27 11.726563,27 H 3.953125 C 3.6145703,27 3.3216016,26.876289 3.0742188,26.628906 2.8268359,26.381523 2.703125,26.088555 2.703125,25.75 V 25.476562 C 4.3958203,18.497383 7.9114453,12.839844 13.25,8.5039063 18.588555,4.1679687 24.838555,2 32,2 c 3.80207,0 7.5,0.7226563 11.09375,2.1679687 3.59375,1.4453125 6.783867,3.483086 9.570312,6.1132813 L 57.742187,5.2421875 C 58.236992,4.7473828 58.82293,4.5 59.5,4.5 c 0.67707,0 1.263008,0.2473828 1.757812,0.7421875 C 61.752617,5.7369922 62,6.3229297 62,7 Z"
     id="path2"
     inkscape:connector-curvature="0"
     style="stroke-width:0.0390625" /></svg>