<?xml version="1.0" encoding="UTF-8" standalone="no"?>
<!-- Creator: CorelDRAW X6 -->

<svg
   xmlns:dc="http://purl.org/dc/elements/1.1/"
   xmlns:cc="http://creativecommons.org/ns#"
   xmlns:rdf="http://www.w3.org/1999/02/22-rdf-syntax-ns#"
   xmlns:svg="http://www.w3.org/2000/svg"
   xmlns="http://www.w3.org/2000/svg"
   xmlns:sodipodi="http://sodipodi.sourceforge.net/DTD/sodipodi-0.dtd"
   xmlns:inkscape="http://www.inkscape.org/namespaces/inkscape"
   xml:space="preserve"
   width="64"
   height="64"
   version="1.1"
   style="clip-rule:evenodd;fill-rule:evenodd;image-rendering:optimizeQuality;shape-rendering:geometricPrecision;text-rendering:geometricPrecision"
   id="svg16"
   sodipodi:docname="yes.svg"
   inkscape:version="0.92.4 (unknown)"><metadata
   id="metadata20"><rdf:RDF><cc:Work
       rdf:about=""><dc:format>image/svg+xml</dc:format><dc:type
         rdf:resource="http://purl.org/dc/dcmitype/StillImage" /></cc:Work></rdf:RDF></metadata><sodipodi:namedview
   pagecolor="#ffffff"
   bordercolor="#666666"
   borderopacity="1"
   objecttolerance="10"
   gridtolerance="10"
   guidetolerance="10"
   inkscape:pageopacity="0"
   inkscape:pageshadow="2"
   inkscape:window-width="1920"
   inkscape:window-height="1010"
   id="namedview18"
   showgrid="false"
   inkscape:zoom="0.472"
   inkscape:cx="-215.04237"
   inkscape:cy="250"
   inkscape:window-x="0"
   inkscape:window-y="0"
   inkscape:window-maximized="1"
   inkscape:current-layer="svg16" />
 <defs
   id="defs4">
  <style
   type="text/css"
   id="style2">
   <![CDATA[
    .fil1 {fill:#66A000}
    .fil0 {fill:#77BB00}
    .fil3 {fill:#D8D8D8}
    .fil2 {fill:#F2F2F2}
   ]]>
  </style>
 </defs>
 <g
   id="Layer_x0020_1"
   transform="matrix(0.13333333,0,0,0.13333333,-1.3333333,-1.3333333)">
  <metadata
   id="CorelCorpID_0Corel-Layer" />
  <path
   class="fil0"
   d="m 250,25 v 0 450 0 C 126,475 25,374 25,250 25,126 126,25 250,25 Z"
   id="path7"
   inkscape:connector-curvature="0"
   style="fill:#77bb00" />
  <path
   class="fil1"
   d="m 250,25 v 0 450 0 C 374,475 475,374 475,250 475,126 374,25 250,25 Z"
   id="path9"
   inkscape:connector-curvature="0"
   style="fill:#66a000" />
  <polygon
   class="fil2"
   points="217,249 250,216 250,345 222,373 89,240 149,180 "
   id="polygon11"
   style="fill:#f2f2f2" />
  <polygon
   class="fil3"
   points="250,345 250,216 346,120 411,184 "
   id="polygon13"
   style="fill:#d8d8d8" />
 </g>
</svg>